<?xml version="1.0" standalone="no"?><!DOCTYPE svg PUBLIC "-//W3C//DTD SVG 1.1//EN" "http://www.w3.org/Graphics/SVG/1.1/DTD/svg11.dtd"><svg t="1556002556335" class="icon" style="" viewBox="0 0 1024 1024" version="1.1" xmlns="http://www.w3.org/2000/svg" p-id="21197" xmlns:xlink="http://www.w3.org/1999/xlink" width="100" height="100"><defs><style type="text/css"></style></defs><path d="M330.442 956.439L71.56 697.558V331.442L330.442 72.561h366.116l258.881 258.881v366.116L696.558 956.439z" fill="#E94F4E" p-id="21198"></path><path d="M347.814 914.5L113.5 680.186V348.814L347.814 114.5h331.372L913.5 348.814v331.372L679.186 914.5z" fill="#F5C02A" p-id="21199"></path><path d="M569.358 316.521V735.5h-104.55V510.871c0-32.434-0.776-51.928-2.329-58.486-1.553-6.555-5.823-11.516-12.81-14.88s-22.559-5.046-46.711-5.046h-10.352v-48.847c50.549-10.877 88.935-33.242 115.161-67.091h61.591z" fill="#FAECBE" p-id="21200"></path><path d="M584.358 750.5h-134.55V510.871c0-42.327-1.347-52.585-1.926-55.031-0.238-1.004-0.681-2.876-4.721-4.821-1.235-0.595-8.979-3.562-40.204-3.562h-25.352v-75.962l11.845-2.549c46.759-10.062 82.577-30.791 106.459-61.614l4.504-5.813h83.945V750.5z m-104.55-30h74.551V331.521h-39.438c-25.94 30.719-61.969 52.186-107.315 63.949v22.01c31.553 0.295 42.542 3.607 48.57 6.51 13.986 6.734 19.084 17.278 20.899 24.938 1.272 5.376 2.733 17.273 2.733 61.944V720.5z" fill="#E94F4E" p-id="21201"></path></svg>